<?xml version="1.0" encoding="UTF-8"?>
<svg xmlns="http://www.w3.org/2000/svg" xmlns:xlink="http://www.w3.org/1999/xlink" width="1928" height="1955.921875"><defs><style type="text/css"><![CDATA[@import url("https://atlas.mindmup.com/_resources/22/fonts.css")]]></style></defs><rect width="100%" height="100%" fill="#FFFFFF"/><g transform="translate(854,2570.921875)" style="fill:none;"><g transform="translate(229,-1714.921875)"><path d="M211,270Q211,-21 84,15" stroke="#707070" stroke-width="1" stroke-linecap="round"/></g><g transform="translate(128,-2235.921875)"><path d="M143,536Q143,-21 76,15" stroke="#707070" stroke-width="1" stroke-linecap="round"/></g><g transform="translate(37,-1714.921875)"><path d="M234,15Q234,480 91,444" stroke="#707070" stroke-width="1" stroke-linecap="round"/></g><g transform="translate(-323,-2524.921875)"><path d="M489,304Q489,-12 158,24" stroke="#707070" stroke-width="1" stroke-linecap="round"/></g><g transform="translate(-408,-2540.921875)"><path d="M95,40Q95,15 65,15" stroke="#707070" stroke-width="1" stroke-linecap="round"/></g><g transform="translate(-445,-2524.921875)"><path d="M132,24Q132,49 102,49" stroke="#707070" stroke-width="1" stroke-linecap="round"/></g><g transform="translate(-141,-2235.921875)"><path d="M279,15Q279,19 108,19" stroke="#707070" stroke-width="1" stroke-linecap="round"/></g><g transform="translate(-221,-2231.921875)"><path d="M90,15L60,15" stroke="#707070" stroke-width="1" stroke-linecap="round"/></g><g transform="translate(-180,-2235.921875)"><path d="M346,15Q346,418 158,382" stroke="#707070" stroke-width="1" stroke-linecap="round"/></g><g transform="translate(-241,-1997.921875)"><path d="M140,144Q140,-21 41,15" stroke="#707070" stroke-width="1" stroke-linecap="round"/></g><g transform="translate(-267,-1879.921875)"><path d="M97,26Q97,15 67,15" stroke="#707070" stroke-width="1" stroke-linecap="round"/></g><g transform="translate(-440,-1879.921875)"><path d="M183,15L153,15" stroke="#707070" stroke-width="1" stroke-linecap="round"/></g><g transform="translate(-95,-1413.921875)"><path d="M178,143Q178,-21 112,15" stroke="#707070" stroke-width="1" stroke-linecap="round"/></g><g transform="translate(-72,-1285.921875)"><path d="M155,15Q155,350 81,314" stroke="#707070" stroke-width="1" stroke-linecap="round"/></g><g transform="translate(-146,-1023.921875)"><path d="M115,52Q115,-12.75 54,15" stroke="#707070" stroke-width="1" stroke-linecap="round"/></g><g transform="translate(-181,-1413.921875)"><path d="M96,15L66,15" stroke="#707070" stroke-width="1" stroke-linecap="round"/></g><g transform="translate(-390,-1538.921875)"><path d="M242,140Q242,-21 132,15" stroke="#707070" stroke-width="1" stroke-linecap="round"/></g><g transform="translate(-444,-1642.921875)"><path d="M120,119Q120,-21 34,15" stroke="#707070" stroke-width="1" stroke-linecap="round"/></g><g transform="translate(397,-1977)"><path d="M43,532Q43,-21 105,15" stroke="#707070" stroke-width="1" stroke-linecap="round"/></g><g transform="translate(-453,-1538.921875)"><path d="M73,15Q73,20 43,20" stroke="#707070" stroke-width="1" stroke-linecap="round"/></g><g transform="translate(-758,-1470.921875)"><path d="M201,24Q201,253 100,217" stroke="#707070" stroke-width="1" stroke-linecap="round"/></g><g transform="translate(-638,-1538.921875)"><path d="M314,15Q314,128 162,92" stroke="#707070" stroke-width="1" stroke-linecap="round"/></g><g transform="translate(-824,-1470.921875)"><path d="M267,24Q267,169.6 158,112" stroke="#707070" stroke-width="1" stroke-linecap="round"/></g><g transform="translate(-756,-1470.921875)"><path d="M199,24Q199,203 81,167" stroke="#707070" stroke-width="1" stroke-linecap="round"/></g><g transform="translate(-363,-1413.921875)"><path d="M215,15Q215,192 162,156" stroke="#707070" stroke-width="1" stroke-linecap="round"/></g><g transform="translate(-467,-1281.921875)"><path d="M114,24Q114,29 57,29" stroke="#707070" stroke-width="1" stroke-linecap="round"/></g><g transform="translate(643,-1359)"><path d="M45,15Q45,226 109,190" stroke="#707070" stroke-width="1" stroke-linecap="round"/></g><g transform="translate(397,-1460)"><path d="M43,15Q43,151 137,115" stroke="#FFFF00" stroke-width="1" stroke-linecap="round"/></g><g transform="translate(534,-1684)"><path d="M38,339Q38,-21 95,15" stroke="#FFFF00" stroke-width="1" stroke-linecap="round"/></g><g transform="translate(534,-1634)"><path d="M38,289Q38,-21 95,15" stroke="#FFFF00" stroke-width="1" stroke-linecap="round"/></g><g transform="translate(534,-1584)"><path d="M38,239Q38,-21 95,15" stroke="#FFFF00" stroke-width="1" stroke-linecap="round"/></g><g transform="translate(-259,-1877.921875)"><path d="M158,24Q158,189 59,153" stroke="#707070" stroke-width="1" stroke-linecap="round"/></g><g transform="translate(-377,-1761.921875)"><path d="M128,37Q128,15 98,15" stroke="#707070" stroke-width="1" stroke-linecap="round"/></g><g transform="translate(-379,-1739.921875)"><path d="M150,15Q150,64 89,43" stroke="#707070" stroke-width="1" stroke-linecap="round"/></g><g transform="translate(534,-1360)"><path d="M38,15Q38,640 102,604" stroke="#FFFF00" stroke-width="1" stroke-linecap="round"/></g><g transform="translate(636,-830)"><path d="M26,74Q26,-21 71,15" stroke="#707070" stroke-width="1" stroke-linecap="round"/></g><g transform="translate(636,-780)"><path d="M41,24Q41,15 71,15" stroke="#707070" stroke-width="1" stroke-linecap="round"/></g><g transform="translate(-445,-1947.921875)"><path d="M212,83Q212,-12 158,24" stroke="#707070" stroke-width="1" stroke-linecap="round"/></g><g transform="translate(-445,-1879.921875)"><path d="M212,15Q212,110 158,74" stroke="#707070" stroke-width="1" stroke-linecap="round"/></g><g transform="translate(-176,-986.921875)"><path d="M145,15Q145,81.5 84,53" stroke="#707070" stroke-width="1" stroke-linecap="round"/></g><g transform="translate(534,-1360)"><path d="M65,15Q65,16 109,16" stroke="#707070" stroke-width="1" stroke-linecap="round"/></g><g transform="translate(643,-1534)"><path d="M45,190Q45,-21 109,15" stroke="#FF00FF" stroke-width="1" stroke-linecap="round"/></g><g transform="translate(643,-1484)"><path d="M45,140Q45,-21 109,15" stroke="#FF00FF" stroke-width="1" stroke-linecap="round"/></g><g transform="translate(643,-1434)"><path d="M45,90Q45,-21 109,15" stroke="#FF00FF" stroke-width="1" stroke-linecap="round"/></g><g transform="translate(643,-1384)"><path d="M79,40Q79,15 109,15" stroke="#707070" stroke-width="1" stroke-linecap="round"/></g><g transform="translate(643,-1359)"><path d="M79,15Q79,40 109,40" stroke="#FF00FF" stroke-width="1" stroke-linecap="round"/></g><g transform="translate(643,-1359)"><path d="M45,15Q45,126 109,90" stroke="#FF00FF" stroke-width="1" stroke-linecap="round"/></g><g transform="translate(643,-1359)"><path d="M45,15Q45,176 109,140" stroke="#FF00FF" stroke-width="1" stroke-linecap="round"/></g><g transform="translate(-299,-1048.921875)"><path d="M163,40Q163,15 133,15" stroke="#707070" stroke-width="1" stroke-linecap="round"/></g><g transform="translate(-313,-1023.921875)"><path d="M177,15Q177,40 147,40" stroke="#707070" stroke-width="1" stroke-linecap="round"/></g><g transform="translate(636,-771)"><path d="M26,15Q26,90.25 71,58" stroke="#707070" stroke-width="1" stroke-linecap="round"/></g><g transform="translate(707,-730)"><path d="M92,17Q92,15 234,15" stroke="#707070" stroke-width="1" stroke-linecap="round"/></g><g transform="translate(707,-728)"><path d="M51,15Q51,104 211,68" stroke="#707070" stroke-width="1" stroke-linecap="round"/></g><g transform="translate(534,-1360)"><path d="M38,15Q38,417 95,381" stroke="#FFFF00" stroke-width="1" stroke-linecap="round"/></g><g transform="translate(629,-1084)"><path d="M26,105Q26,-21 72,15" stroke="#707070" stroke-width="1" stroke-linecap="round"/></g><g transform="translate(701,-1134)"><path d="M33,65Q33,-21 86,15" stroke="#707070" stroke-width="1" stroke-linecap="round"/></g><g transform="translate(701,-1084)"><path d="M33,15Q33,101 86,65" stroke="#707070" stroke-width="1" stroke-linecap="round"/></g><g transform="translate(629,-994)"><path d="M26,15Q26,142 72,106" stroke="#707070" stroke-width="1" stroke-linecap="round"/></g><g transform="translate(701,-929)"><path d="M27,41Q27,-4.5 80,15" stroke="#707070" stroke-width="1" stroke-linecap="round"/></g><g transform="translate(701,-903)"><path d="M44,15Q44,38 74,38" stroke="#707070" stroke-width="1" stroke-linecap="round"/></g><g transform="translate(787,-1134)"><path d="M65,15L95,15" stroke="#707070" stroke-width="1" stroke-linecap="round"/></g><g transform="translate(787,-1084)"><path d="M38,65Q38,-21 95,15" stroke="#707070" stroke-width="1" stroke-linecap="round"/></g><g transform="translate(787,-1034)"><path d="M65,15L95,15" stroke="#707070" stroke-width="1" stroke-linecap="round"/></g><g transform="translate(787,-1034)"><path d="M38,15Q38,101 95,65" stroke="#707070" stroke-width="1" stroke-linecap="round"/></g><g transform="translate(397,-1909)"><path d="M43,464Q43,-21 122,15" stroke="#707070" stroke-width="1" stroke-linecap="round"/></g><g transform="translate(397,-1859)"><path d="M43,414Q43,-21 156,15" stroke="#707070" stroke-width="1" stroke-linecap="round"/></g><g transform="translate(-140.28125,-1460)"><path d="M580,15Q580,642 158,606" stroke="#707070" stroke-width="1" stroke-linecap="round"/></g><g transform="translate(-219.28125,-893.921875)"><path d="M89,40Q89,15 59,15" stroke="#707070" stroke-width="1" stroke-linecap="round"/></g><g transform="translate(-226.28125,-877.921875)"><path d="M96,24Q96,49 66,49" stroke="#707070" stroke-width="1" stroke-linecap="round"/></g><g transform="translate(397,-1460)"><rect x="0" y="0" width="85" height="30" border="1" rx="10" ry="10" style="fill:#22AAE0;stroke:#707070;stroke-width:1px;"/><text font-family="NotoSans, 'Helvetica Neue', Roboto, Helvetica, Arial, sans-serif" font-size="12" font-weight="bold" lengthAdjust="spacingAndGlyphs" style="fill:#4F4F4F;"><tspan y="18" x="43" text-anchor="middle" textLength="35">САОД</tspan></text></g><g transform="translate(229,-1714.921875)"><rect x="0" y="0" width="84" height="30" border="1" rx="10" ry="10" style="fill:#00FFFF;stroke:#707070;stroke-width:1px;"/><text font-family="NotoSans, 'Helvetica Neue', Roboto, Helvetica, Arial, sans-serif" font-size="12" font-weight="bold" lengthAdjust="spacingAndGlyphs" style="fill:#4F4F4F;"><tspan y="18" x="42" text-anchor="middle" textLength="72">Коллекции</tspan></text></g><g transform="translate(128,-2235.921875)"><rect x="0" y="0" width="76" height="30" border="1" rx="10" ry="10" style="fill:#FF9900;stroke:#707070;stroke-width:1px;"/><text font-family="NotoSans, 'Helvetica Neue', Roboto, Helvetica, Arial, sans-serif" font-size="12" font-weight="bold" lengthAdjust="spacingAndGlyphs" style="fill:#4F4F4F;"><tspan y="18" x="38" text-anchor="middle" textLength="64">Линейная</tspan></text></g><g transform="translate(37,-1285.921875)"><rect x="0" y="0" width="91" height="30" border="1" rx="10" ry="10" style="fill:#339966;stroke:#707070;stroke-width:1px;"/><text font-family="NotoSans, 'Helvetica Neue', Roboto, Helvetica, Arial, sans-serif" font-size="12" font-weight="bold" lengthAdjust="spacingAndGlyphs" style="fill:#4F4F4F;"><tspan y="18" x="46" text-anchor="middle" textLength="79">Нелинейная</tspan></text></g><g transform="translate(-323,-2524.921875)"><rect x="0" y="0" width="158" height="48" border="1" rx="10" ry="10" style="fill:#FF9900;stroke:#707070;stroke-width:1px;"/><text font-family="NotoSans, 'Helvetica Neue', Roboto, Helvetica, Arial, sans-serif" font-size="12" font-weight="bold" lengthAdjust="spacingAndGlyphs" style="fill:#4F4F4F;"><tspan y="18" x="79" text-anchor="middle" textLength="85">С индексным</tspan><tspan y="36" x="79" text-anchor="middle" textLength="61">доступом</tspan></text></g><g transform="translate(-408,-2540.921875)"><rect x="0" y="0" width="65" height="30" border="1" rx="10" ry="10" style="fill:#FF0000;stroke:#707070;stroke-width:1px;"/><text font-family="NotoSans, 'Helvetica Neue', Roboto, Helvetica, Arial, sans-serif" font-size="12" font-weight="bold" lengthAdjust="spacingAndGlyphs" style="fill:#4F4F4F;"><tspan y="18" x="33" text-anchor="middle" textLength="53">Словарь</tspan></text></g><g transform="translate(-445,-2490.921875)"><rect x="0" y="0" width="102" height="30" border="1" rx="10" ry="10" style="fill:#FF0000;stroke:#707070;stroke-width:1px;"/><text font-family="NotoSans, 'Helvetica Neue', Roboto, Helvetica, Arial, sans-serif" font-size="12" font-weight="bold" lengthAdjust="spacingAndGlyphs" style="fill:#4F4F4F;"><tspan y="18" x="51" text-anchor="middle" textLength="90">Хэш - таблица</tspan></text></g><g transform="translate(-141,-2231.921875)"><rect x="0" y="0" width="108" height="30" border="1" rx="10" ry="10" style="fill:#FF9900;stroke:#707070;stroke-width:1px;"/><text font-family="NotoSans, 'Helvetica Neue', Roboto, Helvetica, Arial, sans-serif" font-size="12" font-weight="bold" lengthAdjust="spacingAndGlyphs" style="fill:#4F4F4F;"><tspan y="18" x="54" text-anchor="middle" textLength="96">Прямой доступ</tspan></text></g><g transform="translate(-221,-2231.921875)"><rect x="0" y="0" width="60" height="30" border="1" rx="10" ry="10" style="fill:#FFFF00;stroke:#707070;stroke-width:1px;"/><text font-family="NotoSans, 'Helvetica Neue', Roboto, Helvetica, Arial, sans-serif" font-size="12" font-weight="bold" lengthAdjust="spacingAndGlyphs" style="fill:#4F4F4F;"><tspan y="18" x="30" text-anchor="middle" textLength="48">Массив</tspan></text></g><g transform="translate(-180,-1877.921875)"><rect x="0" y="0" width="158" height="48" border="1" rx="10" ry="10" style="fill:#FF9900;stroke:#707070;stroke-width:1px;"/><text font-family="NotoSans, 'Helvetica Neue', Roboto, Helvetica, Arial, sans-serif" font-size="12" font-weight="bold" lengthAdjust="spacingAndGlyphs" style="fill:#4F4F4F;"><tspan y="18" x="79" text-anchor="middle" textLength="124">Последовательный</tspan><tspan y="36" x="79" text-anchor="middle" textLength="43">доступ</tspan></text></g><g transform="translate(-241,-1997.921875)"><rect x="0" y="0" width="41" height="30" border="1" rx="10" ry="10" style="fill:#FFCC99;stroke:#707070;stroke-width:1px;"/><text font-family="NotoSans, 'Helvetica Neue', Roboto, Helvetica, Arial, sans-serif" font-size="12" font-weight="bold" lengthAdjust="spacingAndGlyphs" style="fill:#4F4F4F;"><tspan y="18" x="21" text-anchor="middle" textLength="29">Стек</tspan></text></g><g transform="translate(-267,-1879.921875)"><rect x="0" y="0" width="67" height="30" border="1" rx="10" ry="10" style="fill:#FFCC00;stroke:#707070;stroke-width:1px;"/><text font-family="NotoSans, 'Helvetica Neue', Roboto, Helvetica, Arial, sans-serif" font-size="12" font-weight="bold" lengthAdjust="spacingAndGlyphs" style="fill:#4F4F4F;"><tspan y="18" x="34" text-anchor="middle" textLength="55">Очередь</tspan></text></g><g transform="translate(-440,-1879.921875)"><rect x="0" y="0" width="153" height="30" border="1" rx="10" ry="10" style="fill:#FFCC00;stroke:#707070;stroke-width:1px;"/><text font-family="NotoSans, 'Helvetica Neue', Roboto, Helvetica, Arial, sans-serif" font-size="12" font-weight="bold" lengthAdjust="spacingAndGlyphs" style="fill:#4F4F4F;"><tspan y="18" x="77" text-anchor="middle" textLength="141">Очередь приоритетов</tspan></text></g><g transform="translate(-95,-1413.921875)"><rect x="0" y="0" width="112" height="30" border="1" rx="10" ry="10" style="fill:#339966;stroke:#707070;stroke-width:1px;"/><text font-family="NotoSans, 'Helvetica Neue', Roboto, Helvetica, Arial, sans-serif" font-size="12" font-weight="bold" lengthAdjust="spacingAndGlyphs" style="fill:#4F4F4F;"><tspan y="18" x="56" text-anchor="middle" textLength="100">Иерархические</tspan></text></g><g transform="translate(-72,-986.921875)"><rect x="0" y="0" width="81" height="30" border="1" rx="10" ry="10" style="fill:#339966;stroke:#707070;stroke-width:1px;"/><text font-family="NotoSans, 'Helvetica Neue', Roboto, Helvetica, Arial, sans-serif" font-size="12" font-weight="bold" lengthAdjust="spacingAndGlyphs" style="fill:#4F4F4F;"><tspan y="18" x="41" text-anchor="middle" textLength="69">Групповые</tspan></text></g><g transform="translate(-146,-1023.921875)"><rect x="0" y="0" width="54" height="30" border="1" rx="10" ry="10" style="fill:#CCFFFF;stroke:#707070;stroke-width:1px;"/><text font-family="NotoSans, 'Helvetica Neue', Roboto, Helvetica, Arial, sans-serif" font-size="12" font-weight="bold" lengthAdjust="spacingAndGlyphs" style="fill:#4F4F4F;"><tspan y="18" x="27" text-anchor="middle" textLength="42">Графы</tspan></text></g><g transform="translate(-181,-1413.921875)"><rect x="0" y="0" width="66" height="30" border="1" rx="10" ry="10" style="fill:#339966;stroke:#707070;stroke-width:1px;"/><text font-family="NotoSans, 'Helvetica Neue', Roboto, Helvetica, Arial, sans-serif" font-size="12" font-weight="bold" lengthAdjust="spacingAndGlyphs" style="fill:#4F4F4F;"><tspan y="18" x="33" text-anchor="middle" textLength="54">Деревья</tspan></text></g><g transform="translate(-390,-1538.921875)"><rect x="0" y="0" width="132" height="30" border="1" rx="10" ry="10" style="fill:#99CC00;stroke:#707070;stroke-width:1px;"/><text font-family="NotoSans, 'Helvetica Neue', Roboto, Helvetica, Arial, sans-serif" font-size="12" font-weight="bold" lengthAdjust="spacingAndGlyphs" style="fill:#4F4F4F;"><tspan y="18" x="66" text-anchor="middle" textLength="120">Бинарные деревья</tspan></text></g><g transform="translate(-444,-1642.921875)"><rect x="0" y="0" width="34" height="30" border="1" rx="10" ry="10" style="fill:#99CC00;stroke:#707070;stroke-width:1px;"/><text font-family="NotoSans, 'Helvetica Neue', Roboto, Helvetica, Arial, sans-serif" font-size="12" font-weight="bold" lengthAdjust="spacingAndGlyphs" style="fill:#4F4F4F;"><tspan y="18" x="17" text-anchor="middle" textLength="22">BST</tspan></text></g><g transform="translate(502,-1977)"><rect x="0" y="0" width="72" height="30" border="1" rx="10" ry="10" style="fill:#E0E0E0;stroke:#707070;stroke-width:1px;"/><text font-family="NotoSans, 'Helvetica Neue', Roboto, Helvetica, Arial, sans-serif" font-size="12" font-weight="bold" lengthAdjust="spacingAndGlyphs" style="fill:#4F4F4F;"><tspan y="18" x="36" text-anchor="middle" textLength="60">Итератор</tspan></text></g><g transform="translate(-453,-1533.921875)"><rect x="0" y="0" width="43" height="30" border="1" rx="10" ry="10" style="fill:#99CC00;stroke:#707070;stroke-width:1px;"/><text font-family="NotoSans, 'Helvetica Neue', Roboto, Helvetica, Arial, sans-serif" font-size="12" font-weight="bold" lengthAdjust="spacingAndGlyphs" style="fill:#4F4F4F;"><tspan y="18" x="22" text-anchor="middle" textLength="31">Куча</tspan></text></g><g transform="translate(-758,-1268.921875)"><rect x="0" y="0" width="100" height="30" border="1" rx="10" ry="10" style="fill:#808000;stroke:#707070;stroke-width:1px;"/><text font-family="NotoSans, 'Helvetica Neue', Roboto, Helvetica, Arial, sans-serif" font-size="12" font-weight="bold" lengthAdjust="spacingAndGlyphs" style="fill:#4F4F4F;"><tspan y="18" x="50" text-anchor="middle" textLength="88">АВЛ - деревья</tspan></text></g><g transform="translate(-638,-1470.921875)"><rect x="0" y="0" width="162" height="48" border="1" rx="10" ry="10" style="fill:#808000;stroke:#707070;stroke-width:1px;"/><text font-family="NotoSans, 'Helvetica Neue', Roboto, Helvetica, Arial, sans-serif" font-size="12" font-weight="bold" lengthAdjust="spacingAndGlyphs" style="fill:#4F4F4F;"><tspan y="18" x="81" text-anchor="middle" textLength="150">Самобалансирующееся</tspan><tspan y="36" x="81" text-anchor="middle" textLength="52">деревья</tspan></text></g><g transform="translate(-824,-1382.921875)"><rect x="0" y="0" width="158" height="48" border="1" rx="10" ry="10" style="fill:#808000;stroke:#707070;stroke-width:1px;"/><text font-family="NotoSans, 'Helvetica Neue', Roboto, Helvetica, Arial, sans-serif" font-size="12" font-weight="bold" lengthAdjust="spacingAndGlyphs" style="fill:#4F4F4F;"><tspan y="18" x="79" text-anchor="middle" textLength="103">Красно - черные</tspan><tspan y="36" x="79" text-anchor="middle" textLength="52">деревья</tspan></text></g><g transform="translate(-756,-1318.921875)"><rect x="0" y="0" width="81" height="30" border="1" rx="10" ry="10" style="fill:#808000;stroke:#707070;stroke-width:1px;"/><text font-family="NotoSans, 'Helvetica Neue', Roboto, Helvetica, Arial, sans-serif" font-size="12" font-weight="bold" lengthAdjust="spacingAndGlyphs" style="fill:#4F4F4F;"><tspan y="18" x="41" text-anchor="middle" textLength="69">Splay - Tree</tspan></text></g><g transform="translate(-363,-1281.921875)"><rect x="0" y="0" width="162" height="48" border="1" rx="10" ry="10" style="fill:#808000;stroke:#707070;stroke-width:1px;"/><text font-family="NotoSans, 'Helvetica Neue', Roboto, Helvetica, Arial, sans-serif" font-size="12" font-weight="bold" lengthAdjust="spacingAndGlyphs" style="fill:#4F4F4F;"><tspan y="18" x="81" text-anchor="middle" textLength="150">Самобалансирующееся</tspan><tspan y="36" x="81" text-anchor="middle" textLength="52">деревья</tspan></text></g><g transform="translate(-467,-1267.921875)"><rect x="0" y="0" width="57" height="30" border="1" rx="10" ry="10" style="fill:#808000;stroke:#707070;stroke-width:1px;"/><text font-family="NotoSans, 'Helvetica Neue', Roboto, Helvetica, Arial, sans-serif" font-size="12" font-weight="bold" lengthAdjust="spacingAndGlyphs" style="fill:#4F4F4F;"><tspan y="18" x="29" text-anchor="middle" textLength="45">B - Tree</tspan></text></g><g transform="translate(752,-1184)"><rect x="0" y="0" width="51" height="30" border="1" rx="10" ry="10" style="fill:#FF00FF;stroke:#707070;stroke-width:1px;"/><text font-family="NotoSans, 'Helvetica Neue', Roboto, Helvetica, Arial, sans-serif" font-size="12" font-weight="bold" lengthAdjust="spacingAndGlyphs" style="fill:#4F4F4F;"><tspan y="18" x="26" text-anchor="middle" textLength="39">Кучей</tspan></text></g><g transform="translate(534,-1360)"><rect x="0" y="0" width="75" height="30" border="1" rx="10" ry="10" style="fill:#FFFF00;stroke:#707070;stroke-width:1px;"/><text font-family="NotoSans, 'Helvetica Neue', Roboto, Helvetica, Arial, sans-serif" font-size="12" font-weight="bold" lengthAdjust="spacingAndGlyphs" style="fill:#4F4F4F;"><tspan y="18" x="38" text-anchor="middle" textLength="63">Алгоритм</tspan></text></g><g transform="translate(629,-1684)"><rect x="0" y="0" width="71" height="30" border="1" rx="10" ry="10" style="fill:#E0E0E0;stroke:#707070;stroke-width:1px;"/><text font-family="NotoSans, 'Helvetica Neue', Roboto, Helvetica, Arial, sans-serif" font-size="12" font-weight="bold" lengthAdjust="spacingAndGlyphs" style="fill:#4F4F4F;"><tspan y="18" x="36" text-anchor="middle" textLength="59">Рекурсия</tspan></text></g><g transform="translate(629,-1634)"><rect x="0" y="0" width="130" height="30" border="1" rx="10" ry="10" style="fill:#E0E0E0;stroke:#707070;stroke-width:1px;"/><text font-family="NotoSans, 'Helvetica Neue', Roboto, Helvetica, Arial, sans-serif" font-size="12" font-weight="bold" lengthAdjust="spacingAndGlyphs" style="fill:#4F4F4F;"><tspan y="18" x="65" text-anchor="middle" textLength="118">Жадный алгоритм</tspan></text></g><g transform="translate(629,-1584)"><rect x="0" y="0" width="146" height="30" border="1" rx="10" ry="10" style="fill:#E0E0E0;stroke:#707070;stroke-width:1px;"/><text font-family="NotoSans, 'Helvetica Neue', Roboto, Helvetica, Arial, sans-serif" font-size="12" font-weight="bold" lengthAdjust="spacingAndGlyphs" style="fill:#4F4F4F;"><tspan y="18" x="73" text-anchor="middle" textLength="134">Разделяй и властвуй</tspan></text></g><g transform="translate(-259,-1739.921875)"><rect x="0" y="0" width="59" height="30" border="1" rx="10" ry="10" style="fill:#FFFF99;stroke:#707070;stroke-width:1px;"/><text font-family="NotoSans, 'Helvetica Neue', Roboto, Helvetica, Arial, sans-serif" font-size="12" font-weight="bold" lengthAdjust="spacingAndGlyphs" style="fill:#4F4F4F;"><tspan y="18" x="30" text-anchor="middle" textLength="47">Списки</tspan></text></g><g transform="translate(-377,-1761.921875)"><rect x="0" y="0" width="98" height="30" border="1" rx="10" ry="10" style="fill:#FFFF99;stroke:#707070;stroke-width:1px;"/><text font-family="NotoSans, 'Helvetica Neue', Roboto, Helvetica, Arial, sans-serif" font-size="12" font-weight="bold" lengthAdjust="spacingAndGlyphs" style="fill:#4F4F4F;"><tspan y="18" x="49" text-anchor="middle" textLength="86">Односвязные</tspan></text></g><g transform="translate(-379,-1711.921875)"><rect x="0" y="0" width="89" height="30" border="1" rx="10" ry="10" style="fill:#FFFF99;stroke:#707070;stroke-width:1px;"/><text font-family="NotoSans, 'Helvetica Neue', Roboto, Helvetica, Arial, sans-serif" font-size="12" font-weight="bold" lengthAdjust="spacingAndGlyphs" style="fill:#4F4F4F;"><tspan y="18" x="45" text-anchor="middle" textLength="77">Двусвязные</tspan></text></g><g transform="translate(636,-771)"><rect x="0" y="0" width="51" height="30" border="1" rx="10" ry="10" style="fill:#999999;stroke:#707070;stroke-width:1px;"/><text font-family="NotoSans, 'Helvetica Neue', Roboto, Helvetica, Arial, sans-serif" font-size="12" font-weight="bold" lengthAdjust="spacingAndGlyphs" style="fill:#4F4F4F;"><tspan y="18" x="26" text-anchor="middle" textLength="39">Поиск</tspan></text></g><g transform="translate(707,-830)"><rect x="0" y="0" width="81" height="30" border="1" rx="10" ry="10" style="fill:#999999;stroke:#707070;stroke-width:1px;"/><text font-family="NotoSans, 'Helvetica Neue', Roboto, Helvetica, Arial, sans-serif" font-size="12" font-weight="bold" lengthAdjust="spacingAndGlyphs" style="fill:#4F4F4F;"><tspan y="18" x="41" text-anchor="middle" textLength="69">Линейный</tspan></text></g><g transform="translate(707,-780)"><rect x="0" y="0" width="78" height="30" border="1" rx="10" ry="10" style="fill:#999999;stroke:#707070;stroke-width:1px;"/><text font-family="NotoSans, 'Helvetica Neue', Roboto, Helvetica, Arial, sans-serif" font-size="12" font-weight="bold" lengthAdjust="spacingAndGlyphs" style="fill:#4F4F4F;"><tspan y="18" x="39" text-anchor="middle" textLength="66">Бинарный</tspan></text></g><g transform="translate(-445,-1947.921875)"><rect x="0" y="0" width="158" height="48" border="1" rx="10" ry="10" style="fill:#FFCC00;stroke:#707070;stroke-width:1px;"/><text font-family="NotoSans, 'Helvetica Neue', Roboto, Helvetica, Arial, sans-serif" font-size="12" font-weight="bold" lengthAdjust="spacingAndGlyphs" style="fill:#4F4F4F;"><tspan y="18" x="79" text-anchor="middle" textLength="127">Дек (Двухсторонняя</tspan><tspan y="36" x="79" text-anchor="middle" textLength="57">очередь)</tspan></text></g><g transform="translate(-445,-1829.921875)"><rect x="0" y="0" width="158" height="48" border="1" rx="10" ry="10" style="fill:#FFCC00;stroke:#707070;stroke-width:1px;"/><text font-family="NotoSans, 'Helvetica Neue', Roboto, Helvetica, Arial, sans-serif" font-size="12" font-weight="bold" lengthAdjust="spacingAndGlyphs" style="fill:#4F4F4F;"><tspan y="18" x="79" text-anchor="middle" textLength="99">Односторонняя</tspan><tspan y="36" x="79" text-anchor="middle" textLength="53">очередь</tspan></text></g><g transform="translate(-176,-948.921875)"><rect x="0" y="0" width="84" height="30" border="1" rx="10" ry="10" style="fill:#33CCCC;stroke:#707070;stroke-width:1px;"/><text font-family="NotoSans, 'Helvetica Neue', Roboto, Helvetica, Arial, sans-serif" font-size="12" font-weight="bold" lengthAdjust="spacingAndGlyphs" style="fill:#4F4F4F;"><tspan y="18" x="42" text-anchor="middle" textLength="72">Множества</tspan></text></g><g transform="translate(643,-1359)"><rect x="0" y="0" width="89" height="30" border="1" rx="10" ry="10" style="fill:#FF00FF;stroke:#707070;stroke-width:1px;"/><text font-family="NotoSans, 'Helvetica Neue', Roboto, Helvetica, Arial, sans-serif" font-size="12" font-weight="bold" lengthAdjust="spacingAndGlyphs" style="fill:#4F4F4F;"><tspan y="18" x="45" text-anchor="middle" textLength="77">Сортировки</tspan></text></g><g transform="translate(752,-1534)"><rect x="0" y="0" width="116" height="30" border="1" rx="10" ry="10" style="fill:#FF00FF;stroke:#707070;stroke-width:1px;"/><text font-family="NotoSans, 'Helvetica Neue', Roboto, Helvetica, Arial, sans-serif" font-size="12" font-weight="bold" lengthAdjust="spacingAndGlyphs" style="fill:#4F4F4F;"><tspan y="18" x="58" text-anchor="middle" textLength="104">Пирамидальная</tspan></text></g><g transform="translate(752,-1484)"><rect x="0" y="0" width="85" height="30" border="1" rx="10" ry="10" style="fill:#FF00FF;stroke:#707070;stroke-width:1px;"/><text font-family="NotoSans, 'Helvetica Neue', Roboto, Helvetica, Arial, sans-serif" font-size="12" font-weight="bold" lengthAdjust="spacingAndGlyphs" style="fill:#4F4F4F;"><tspan y="18" x="43" text-anchor="middle" textLength="73">Пузырьком</tspan></text></g><g transform="translate(752,-1434)"><rect x="0" y="0" width="71" height="30" border="1" rx="10" ry="10" style="fill:#FF00FF;stroke:#707070;stroke-width:1px;"/><text font-family="NotoSans, 'Helvetica Neue', Roboto, Helvetica, Arial, sans-serif" font-size="12" font-weight="bold" lengthAdjust="spacingAndGlyphs" style="fill:#4F4F4F;"><tspan y="18" x="36" text-anchor="middle" textLength="53">Быстрая</tspan></text></g><g transform="translate(752,-1384)"><rect x="0" y="0" width="71" height="30" border="1" rx="10" ry="10" style="fill:#FF00FF;stroke:#707070;stroke-width:1px;"/><text font-family="NotoSans, 'Helvetica Neue', Roboto, Helvetica, Arial, sans-serif" font-size="12" font-weight="bold" lengthAdjust="spacingAndGlyphs" style="fill:#4F4F4F;"><tspan y="18" x="36" text-anchor="middle" textLength="59">Выбором</tspan></text></g><g transform="translate(752,-1334)"><rect x="0" y="0" width="82" height="30" border="1" rx="10" ry="10" style="fill:#FF00FF;stroke:#707070;stroke-width:1px;"/><text font-family="NotoSans, 'Helvetica Neue', Roboto, Helvetica, Arial, sans-serif" font-size="12" font-weight="bold" lengthAdjust="spacingAndGlyphs" style="fill:#4F4F4F;"><tspan y="18" x="41" text-anchor="middle" textLength="70">Вставками</tspan></text></g><g transform="translate(752,-1284)"><rect x="0" y="0" width="55" height="30" border="1" rx="10" ry="10" style="fill:#FF00FF;stroke:#707070;stroke-width:1px;"/><text font-family="NotoSans, 'Helvetica Neue', Roboto, Helvetica, Arial, sans-serif" font-size="12" font-weight="bold" lengthAdjust="spacingAndGlyphs" style="fill:#4F4F4F;"><tspan y="18" x="28" text-anchor="middle" textLength="43">Шелла</tspan></text></g><g transform="translate(752,-1234)"><rect x="0" y="0" width="77" height="30" border="1" rx="10" ry="10" style="fill:#FF00FF;stroke:#707070;stroke-width:1px;"/><text font-family="NotoSans, 'Helvetica Neue', Roboto, Helvetica, Arial, sans-serif" font-size="12" font-weight="bold" lengthAdjust="spacingAndGlyphs" style="fill:#4F4F4F;"><tspan y="18" x="39" text-anchor="middle" textLength="65">Слиянием</tspan></text></g><g transform="translate(-299,-1048.921875)"><rect x="0" y="0" width="133" height="30" border="1" rx="10" ry="10" style="fill:#CCFFFF;stroke:#707070;stroke-width:1px;"/><text font-family="NotoSans, 'Helvetica Neue', Roboto, Helvetica, Arial, sans-serif" font-size="12" font-weight="bold" lengthAdjust="spacingAndGlyphs" style="fill:#4F4F4F;"><tspan y="18" x="67" text-anchor="middle" textLength="121">Ориентированный</tspan></text></g><g transform="translate(-313,-998.921875)"><rect x="0" y="0" width="147" height="30" border="1" rx="10" ry="10" style="fill:#CCFFFF;stroke:#707070;stroke-width:1px;"/><text font-family="NotoSans, 'Helvetica Neue', Roboto, Helvetica, Arial, sans-serif" font-size="12" font-weight="bold" lengthAdjust="spacingAndGlyphs" style="fill:#4F4F4F;"><tspan y="18" x="74" text-anchor="middle" textLength="135">Неориентированный</tspan></text></g><g transform="translate(707,-728)"><rect x="0" y="0" width="102" height="30" border="1" rx="10" ry="10" style="fill:#999999;stroke:#707070;stroke-width:1px;"/><text font-family="NotoSans, 'Helvetica Neue', Roboto, Helvetica, Arial, sans-serif" font-size="12" font-weight="bold" lengthAdjust="spacingAndGlyphs" style="fill:#4F4F4F;"><tspan y="18" x="51" text-anchor="middle" textLength="90">Путей в графе</tspan></text></g><g transform="translate(941,-730)"><rect x="0" y="0" width="75" height="30" border="1" rx="10" ry="10" style="fill:#999999;stroke:#707070;stroke-width:1px;"/><text font-family="NotoSans, 'Helvetica Neue', Roboto, Helvetica, Arial, sans-serif" font-size="12" font-weight="bold" lengthAdjust="spacingAndGlyphs" style="fill:#4F4F4F;"><tspan y="18" x="38" text-anchor="middle" textLength="63">Дейкстры</tspan></text></g><g transform="translate(918,-675)"><rect x="0" y="0" width="126" height="30" border="1" rx="10" ry="10" style="fill:#999999;stroke:#707070;stroke-width:1px;"/><text font-family="NotoSans, 'Helvetica Neue', Roboto, Helvetica, Arial, sans-serif" font-size="12" font-weight="bold" lengthAdjust="spacingAndGlyphs" style="fill:#4F4F4F;"><tspan y="18" x="63" text-anchor="middle" textLength="114">Беллмана - Форда</tspan></text></g><g transform="translate(629,-994)"><rect x="0" y="0" width="52" height="30" border="1" rx="10" ry="10" style="fill:#00FF00;stroke:#707070;stroke-width:1px;"/><text font-family="NotoSans, 'Helvetica Neue', Roboto, Helvetica, Arial, sans-serif" font-size="12" font-weight="bold" lengthAdjust="spacingAndGlyphs" style="fill:#4F4F4F;"><tspan y="18" x="26" text-anchor="middle" textLength="40">Обход</tspan></text></g><g transform="translate(701,-1084)"><rect x="0" y="0" width="66" height="30" border="1" rx="10" ry="10" style="fill:#00FF00;stroke:#707070;stroke-width:1px;"/><text font-family="NotoSans, 'Helvetica Neue', Roboto, Helvetica, Arial, sans-serif" font-size="12" font-weight="bold" lengthAdjust="spacingAndGlyphs" style="fill:#4F4F4F;"><tspan y="18" x="33" text-anchor="middle" textLength="54">Деревья</tspan></text></g><g transform="translate(787,-1134)"><rect x="0" y="0" width="75" height="30" border="1" rx="10" ry="10" style="fill:#00FF00;stroke:#707070;stroke-width:1px;"/><text font-family="NotoSans, 'Helvetica Neue', Roboto, Helvetica, Arial, sans-serif" font-size="12" font-weight="bold" lengthAdjust="spacingAndGlyphs" style="fill:#4F4F4F;"><tspan y="18" x="38" text-anchor="middle" textLength="63">В ширину</tspan></text></g><g transform="translate(787,-1034)"><rect x="0" y="0" width="75" height="30" border="1" rx="10" ry="10" style="fill:#00FF00;stroke:#707070;stroke-width:1px;"/><text font-family="NotoSans, 'Helvetica Neue', Roboto, Helvetica, Arial, sans-serif" font-size="12" font-weight="bold" lengthAdjust="spacingAndGlyphs" style="fill:#4F4F4F;"><tspan y="18" x="38" text-anchor="middle" textLength="63">В глубину</tspan></text></g><g transform="translate(701,-903)"><rect x="0" y="0" width="54" height="30" border="1" rx="10" ry="10" style="fill:#00FF00;stroke:#707070;stroke-width:1px;"/><text font-family="NotoSans, 'Helvetica Neue', Roboto, Helvetica, Arial, sans-serif" font-size="12" font-weight="bold" lengthAdjust="spacingAndGlyphs" style="fill:#4F4F4F;"><tspan y="18" x="27" text-anchor="middle" textLength="42">Графы</tspan></text></g><g transform="translate(781,-929)"><rect x="0" y="0" width="75" height="30" border="1" rx="10" ry="10" style="fill:#00FF00;stroke:#707070;stroke-width:1px;"/><text font-family="NotoSans, 'Helvetica Neue', Roboto, Helvetica, Arial, sans-serif" font-size="12" font-weight="bold" lengthAdjust="spacingAndGlyphs" style="fill:#4F4F4F;"><tspan y="18" x="38" text-anchor="middle" textLength="63">В ширину</tspan></text></g><g transform="translate(775,-880)"><rect x="0" y="0" width="75" height="30" border="1" rx="10" ry="10" style="fill:#00FF00;stroke:#707070;stroke-width:1px;"/><text font-family="NotoSans, 'Helvetica Neue', Roboto, Helvetica, Arial, sans-serif" font-size="12" font-weight="bold" lengthAdjust="spacingAndGlyphs" style="fill:#4F4F4F;"><tspan y="18" x="38" text-anchor="middle" textLength="63">В глубину</tspan></text></g><g transform="translate(882,-1134)"><rect x="0" y="0" width="87" height="30" border="1" rx="10" ry="10" style="fill:#00FF00;stroke:#707070;stroke-width:1px;"/><text font-family="NotoSans, 'Helvetica Neue', Roboto, Helvetica, Arial, sans-serif" font-size="12" font-weight="bold" lengthAdjust="spacingAndGlyphs" style="fill:#4F4F4F;"><tspan y="18" x="44" text-anchor="middle" textLength="75">По уровням</tspan></text></g><g transform="translate(882,-1084)"><rect x="0" y="0" width="73" height="30" border="1" rx="10" ry="10" style="fill:#00FF00;stroke:#707070;stroke-width:1px;"/><text font-family="NotoSans, 'Helvetica Neue', Roboto, Helvetica, Arial, sans-serif" font-size="12" font-weight="bold" lengthAdjust="spacingAndGlyphs" style="fill:#4F4F4F;"><tspan y="18" x="37" text-anchor="middle" textLength="61">LNR (RNL)</tspan></text></g><g transform="translate(882,-1034)"><rect x="0" y="0" width="73" height="30" border="1" rx="10" ry="10" style="fill:#00FF00;stroke:#707070;stroke-width:1px;"/><text font-family="NotoSans, 'Helvetica Neue', Roboto, Helvetica, Arial, sans-serif" font-size="12" font-weight="bold" lengthAdjust="spacingAndGlyphs" style="fill:#4F4F4F;"><tspan y="18" x="37" text-anchor="middle" textLength="61">NLR (NRL)</tspan></text></g><g transform="translate(882,-984)"><rect x="0" y="0" width="73" height="30" border="1" rx="10" ry="10" style="fill:#00FF00;stroke:#707070;stroke-width:1px;"/><text font-family="NotoSans, 'Helvetica Neue', Roboto, Helvetica, Arial, sans-serif" font-size="12" font-weight="bold" lengthAdjust="spacingAndGlyphs" style="fill:#4F4F4F;"><tspan y="18" x="37" text-anchor="middle" textLength="61">LRN (RLN)</tspan></text></g><g transform="translate(519,-1909)"><rect x="0" y="0" width="41" height="30" border="1" rx="10" ry="10" style="fill:#E0E0E0;stroke:#707070;stroke-width:1px;"/><text font-family="NotoSans, 'Helvetica Neue', Roboto, Helvetica, Arial, sans-serif" font-size="12" font-weight="bold" lengthAdjust="spacingAndGlyphs" style="fill:#4F4F4F;"><tspan y="18" x="21" text-anchor="middle" textLength="29">BigO</tspan></text></g><g transform="translate(553,-1859)"><rect x="0" y="0" width="36" height="30" border="1" rx="10" ry="10" style="fill:#E0E0E0;stroke:#707070;stroke-width:1px;"/><text font-family="NotoSans, 'Helvetica Neue', Roboto, Helvetica, Arial, sans-serif" font-size="12" font-weight="bold" lengthAdjust="spacingAndGlyphs" style="fill:#4F4F4F;"><tspan y="18" x="18" text-anchor="middle" textLength="24">ADT</tspan></text></g><g transform="translate(-140.28125,-877.921875)"><rect x="0" y="0" width="158" height="48" border="1" rx="10" ry="10" style="fill:#FF99CC;stroke:#707070;stroke-width:1px;"/><text font-family="NotoSans, 'Helvetica Neue', Roboto, Helvetica, Arial, sans-serif" font-size="12" font-weight="bold" lengthAdjust="spacingAndGlyphs" style="fill:#4F4F4F;"><tspan y="18" x="79" text-anchor="middle" textLength="130">Реализация классов</tspan><tspan y="36" x="79" text-anchor="middle" textLength="121">через узлы/классы</tspan></text></g><g transform="translate(-219.28125,-893.921875)"><rect x="0" y="0" width="59" height="30" border="1" rx="10" ry="10" style="fill:#FF99CC;stroke:#707070;stroke-width:1px;"/><text font-family="NotoSans, 'Helvetica Neue', Roboto, Helvetica, Arial, sans-serif" font-size="12" font-weight="bold" lengthAdjust="spacingAndGlyphs" style="fill:#4F4F4F;"><tspan y="18" x="30" text-anchor="middle" textLength="47">Списки</tspan></text></g><g transform="translate(-226.28125,-843.921875)"><rect x="0" y="0" width="66" height="30" border="1" rx="10" ry="10" style="fill:#FF99CC;stroke:#707070;stroke-width:1px;"/><text font-family="NotoSans, 'Helvetica Neue', Roboto, Helvetica, Arial, sans-serif" font-size="12" font-weight="bold" lengthAdjust="spacingAndGlyphs" style="fill:#4F4F4F;"><tspan y="18" x="33" text-anchor="middle" textLength="54">Деревья</tspan></text></g></g></svg>